<svg xmlns="http://www.w3.org/2000/svg" xmlns:xlink="http://www.w3.org/1999/xlink" width="159" height="52" viewBox="0 0 159 52">
  <defs>
    <clipPath id="clip-logo">
      <rect width="159" height="52"/>
    </clipPath>
  </defs>
  <g id="logo" clip-path="url(#clip-logo)">
    <path id="Path_10" data-name="Path 10" d="M28.189-16.566c-.018,0-.483.093-1.282.251l.491-.918c5.193-9.706,8.262-15.741,7.083-17.709A1.385,1.385,0,0,0,33.2-35.6c-2.992,0-16.367,15.221-17.882,16.956-.838.96-2.8,3.232-5.04,5.964C-1.271-9.833-1.271-8.785-1.271-8.2a.53.53,0,0,0,.161.38c.262.258.718.265,2.121.244.891-.013,2.961-.043,3.278.289a.465.465,0,0,0,.046.176A4.143,4.143,0,0,1,4.3-4.945C2.095-1.842.453.915.453,2.255a1.135,1.135,0,0,0,.288.815,1.1,1.1,0,0,0,.829.314c.34,0,.644-.255,1.018-.852A26.492,26.492,0,0,0,5.153-4.52C6.737-6.737,8.7-9.265,10.81-11.854c3.908-.97,8.745-2.051,14.355-3.17-4.1,7.746-6.394,12.6-5.411,14.237a1.273,1.273,0,0,0,1.171.608.466.466,0,0,0,.466-.466.466.466,0,0,0-.466-.466c-.279,0-.341-.1-.371-.155-.807-1.347,2.588-7.979,5.79-13.991q1-.2,2.022-.393a.466.466,0,0,0,.37-.546.466.466,0,0,0-.546-.37ZM1.5,2.447a.184.184,0,0,1-.081-.022s-.17-.253.315-1.385A23.351,23.351,0,0,1,3.589-2.24,16.146,16.146,0,0,1,1.5,2.447ZM5.37-6.414a2.849,2.849,0,0,0-.157-1.015.873.873,0,0,0-.261-.512c-.579-.571-2-.594-3.954-.567C.7-8.5.357-8.5.07-8.5c1.112-.66,4.313-1.707,9.23-2.97C7.985-9.843,6.621-8.1,5.37-6.414Zm20.356-9.665c-2.756.553-7.444,1.521-12.094,2.6q-.962.223-1.842.434c1.9-2.292,3.88-4.6,5.795-6.755,8.678-9.76,14.427-14.867,15.621-14.867.353,0,.44.144.477.205.993,1.657-3.5,10.048-7.1,16.79q-.436.815-.851,1.593Zm10.918,4.823c-1.859,2.175-7.3,7.821-10.106,7.821a.4.4,0,0,1-.368-.146,1.145,1.145,0,0,1-.145-.67c0-1.444,1.008-3.992,2.452-6.742a.466.466,0,0,0,.352-.126c.026-.024,2.639-2.492,5.137-5.133,5.24-5.539,4.885-6.432,4.715-6.861a.894.894,0,0,0-.924-.535c-2.4,0-6.485,6.134-7.679,8.014-2.3,3.619-4.985,8.772-4.985,11.383a2.045,2.045,0,0,0,.323,1.217,1.313,1.313,0,0,0,1.123.531c3.809,0,10.531-7.815,10.815-8.148a.466.466,0,0,0-.052-.657.466.466,0,0,0-.657.052Zm1.112-11.46a.574.574,0,0,1,.059,0c-.029.944-3.464,4.938-8.047,9.4,2.806-4.772,6.42-9.4,7.988-9.4Zm3.988,10.259a1.089,1.089,0,0,0-.933-.453c-.846,0-2.217.83-3.7,2.212.9-1.773,1.713-3.343,2.3-4.445a.466.466,0,0,0-.193-.63.466.466,0,0,0-.63.193c-.156.295-1.875,3.543-3.738,7.33C32.272-5.061,29.96-.663,29.96,3.55a.455.455,0,0,0,.007.067c0,.057-.007.11-.007.16a.466.466,0,0,0,.932,0c0-1.276,1.8-5.4,3.819-9.62a3.359,3.359,0,0,0-.052.537,1.355,1.355,0,0,0,1.376,1.533C38.882-3.772,42-9.19,42-11.49a1.637,1.637,0,0,0-.259-.967ZM39.338-7.318C38.209-5.682,36.975-4.7,36.036-4.7c-.283,0-.349-.116-.391-.235a2.859,2.859,0,0,1,.478-2.018.466.466,0,0,0,.325-.445.466.466,0,0,0-.466-.466.56.56,0,0,0-.26.056c2.045-2.506,4.166-4.164,5.09-4.164.129,0,.158.041.174.063a.745.745,0,0,1,.086.425A9.042,9.042,0,0,1,39.338-7.318Zm11.253-4.146a.466.466,0,0,0-.659.033c-.011.012-1.083,1.193-2.4,2.356C45.29-7.1,44.206-6.81,43.759-6.81a1.461,1.461,0,0,1-1.07-.338,1.214,1.214,0,0,1-.295-.884,4.332,4.332,0,0,1,.534-1.87.465.465,0,0,0,.326.133c2.728,0,5.65-1.978,5.65-3.37a.951.951,0,0,0-.494-.842,2.124,2.124,0,0,0-1.088-.233c-3.121,0-5.86,3.852-5.86,6.181a2.132,2.132,0,0,0,.563,1.539,2.338,2.338,0,0,0,1.734.616c2.338,0,6.408-4.424,6.864-4.929a.467.467,0,0,0-.033-.659Zm-3.269-1.816c.534,0,.647.128.648.128.007.024,0,.17-.2.431A6.346,6.346,0,0,1,43.4-10.7C44.345-12.08,45.823-13.281,47.322-13.281Zm7.264-1.866a1.288,1.288,0,0,0-.965-.354,3.4,3.4,0,0,0-3.688,3.047A4.209,4.209,0,0,0,50.6-10.1a5.959,5.959,0,0,1,.812,3.5A2.358,2.358,0,0,1,49-4.736c-.412,0-.5-.157-.535-.208-.142-.239-.128-.845.376-1.768a.466.466,0,0,0-.186-.633.466.466,0,0,0-.633.186,2.815,2.815,0,0,0-.36,2.69A1.434,1.434,0,0,0,49-3.8a3.275,3.275,0,0,0,3.347-2.791,6.9,6.9,0,0,0-.932-3.958,3.3,3.3,0,0,1-.546-1.9c0-.853.876-2.114,2.755-2.114.314,0,.328.1.343.192a3.626,3.626,0,0,1-1.355,2.439.467.467,0,0,0-.439.466.466.466,0,0,0,.466.466c.934,0,2.267-2.117,2.267-3.273a1.2,1.2,0,0,0-.317-.868Zm8.537,3.417a.467.467,0,0,0-.646.131A17.853,17.853,0,0,1,58.8-7.324c.074-.269.178-.6.264-.87.508-1.607.809-2.7.387-3.28a.82.82,0,0,0-.681-.332c-1.336,0-3.231,1.535-3.984,2.2-.068.059-.183.162-.323.293,1.554-3.214,4.278-8.208,6.229-11.646a.466.466,0,0,0-.176-.636.466.466,0,0,0-.636.176C58.619-19.2,52.317-8,52.317-6.3a.466.466,0,0,0,.466.466A.466.466,0,0,0,53.25-6.3c0-.856,3.818-4.483,5.467-4.572a8.472,8.472,0,0,1-.539,2.4c-.4,1.257-.522,1.708-.281,2.038a.547.547,0,0,0,.446.224c.481,0,1.333-.259,3.163-2.5.954-1.17,1.717-2.32,1.749-2.368a.467.467,0,0,0-.132-.646ZM97.058-36.87c-5.3,0-10.6,3.31-14.915,9.321C78.469-22.432,76.1-16,76.1-11.158c0,4.484,2.041,7.056,5.6,7.056,4.279,0,10.461-6.436,12.275-8.434C93.991-9.773,91.186,1.74,86.8,8.939c-1.994,3.273-3.986,5-5.76,5-.45,0-.592-.172-.639-.229a1.266,1.266,0,0,1-.2-.793c0-4.065,7.834-15,10.746-15a.466.466,0,0,0,.466-.466.466.466,0,0,0-.466-.466c-2.524,0-6.19,4.882-7.254,6.378-2.041,2.872-4.425,7.1-4.425,9.554a2.122,2.122,0,0,0,.417,1.388,1.669,1.669,0,0,0,1.357.567c4.056,0,7.533-6.5,9.734-11.952,2.461-6.094,4.114-12.9,4.114-15.426a2.77,2.77,0,0,0-.094-.812.694.694,0,0,0-.666-.562.466.466,0,0,0-.353.162A51.536,51.536,0,0,1,89.4-9.332c-3.191,2.812-5.854,4.3-7.7,4.3a4.081,4.081,0,0,1-3.531-1.653,7.718,7.718,0,0,1-1.137-4.471c0-4.658,2.3-10.879,5.872-15.848,5.58-7.772,11.265-8.932,14.158-8.932,3.453,0,5.2,1.281,5.2,3.808a10.222,10.222,0,0,1-1.914,5.324c-1.219,1.8-2.4,2.619-2.985,2.619a.466.466,0,0,0-.466.466.466.466,0,0,0,.466.466c1.258,0,2.766-1.564,3.757-3.029a11.013,11.013,0,0,0,2.075-5.847c0-1.77-.8-4.74-6.136-4.74ZM104.7-11.465a.466.466,0,0,0-.659.033c-.011.012-1.083,1.193-2.4,2.356C99.395-7.1,98.311-6.81,97.864-6.81a1.461,1.461,0,0,1-1.07-.338,1.214,1.214,0,0,1-.295-.884,4.332,4.332,0,0,1,.534-1.87.465.465,0,0,0,.326.133c2.728,0,5.65-1.978,5.65-3.37a.951.951,0,0,0-.494-.842,2.124,2.124,0,0,0-1.088-.233c-3.121,0-5.86,3.852-5.86,6.181a2.132,2.132,0,0,0,.563,1.539,2.338,2.338,0,0,0,1.734.616c2.338,0,6.408-4.424,6.864-4.929a.467.467,0,0,0-.033-.659Zm-3.269-1.816c.534,0,.647.128.648.128.007.024,0,.17-.2.431A6.345,6.345,0,0,1,97.509-10.7C98.45-12.08,99.928-13.281,101.427-13.281Zm11.57,1.8a.466.466,0,0,0-.659,0,7.051,7.051,0,0,1-2.69,1.834.765.765,0,0,1-.013-.235c2.536-2.381,2.754-3.24,2.754-3.462a.6.6,0,0,0-.214-.474.672.672,0,0,0-.444-.148c-1.432,0-2.69,2.158-2.97,3.607-2.061,1.908-4.679,3.973-5.494,3.973h-.02c-.367-.649,1.681-5.065,2.449-5.713a.467.467,0,0,0,.311-.44.466.466,0,0,0-.466-.466c-.2,0-.659,0-1.968,2.584a11.061,11.061,0,0,0-1.285,3.811,1.316,1.316,0,0,0,.2.77.912.912,0,0,0,.777.387c1.236,0,4.091-2.394,5.26-3.423l.32-.283c.011.02.023.04.035.059a.836.836,0,0,0,.727.388c1.192,0,3.029-1.754,3.385-2.105a.466.466,0,0,0,0-.659Zm11.341.2a.466.466,0,0,0-.653-.094c-1.22.912-4.686,3.28-6.05,3.28-.266,0-.361-.056-.372-.071-.076-.1.09-.61.153-.8.138-.417.267-.811.041-1.125a.642.642,0,0,0-.542-.259.466.466,0,0,0-.286.1c-1.6,1.242-4.216,2.991-5.02,2.991a.723.723,0,0,1-.487-.128.452.452,0,0,1-.106-.337c0-1.463,2.848-4.78,5.557-4.78,1.773,0,1.921.594,1.921,1.2a.466.466,0,0,0,.466.466.466.466,0,0,0,.466-.466c0-2.134-2.148-2.134-2.854-2.134-3.219,0-6.49,3.665-6.49,5.713a1.341,1.341,0,0,0,.4,1.015,1.582,1.582,0,0,0,1.127.383c1.113,0,3.513-1.644,4.819-2.6a1.475,1.475,0,0,0,.08,1.314,1.3,1.3,0,0,0,1.127.457c1.919,0,6.134-3.111,6.609-3.466a.467.467,0,0,0,.094-.653Zm7.825-.115a.467.467,0,0,0-.65-.109,4.266,4.266,0,0,1-2.079.766.284.284,0,0,1-.178-.044c-.124-.131-.1-.639-.08-.943a1.613,1.613,0,0,0-.225-1.222.7.7,0,0,0-.521-.217c-.915,0-2.913,1.981-4.023,3.162-.151.16-.337.362-.54.587.18-.362.354-.708.508-1.015,1.536-3.059,1.529-3.07,1.343-3.37a.486.486,0,0,0-.406-.227.466.466,0,0,0-.466.466s0,.009,0,.014c-.126.352-.75,1.594-1.305,2.7-2.3,4.571-2.46,5.087-2.217,5.481a.507.507,0,0,0,.435.242.465.465,0,0,0,.452-.356.456.456,0,0,0,.185-.367c.11-.976,4.6-5.762,5.862-6.33,0,.124-.007.283-.014.4a2.171,2.171,0,0,0,.335,1.634,1.128,1.128,0,0,0,.855.335,5.255,5.255,0,0,0,2.621-.939.466.466,0,0,0,.108-.65Zm5.953-.491a.467.467,0,0,0-.659.008c-1.545,1.582-4.477,4.092-5.768,4.092-.031,0-.05,0-.054,0-.28-.469.881-3.122,2.5-5.7a.466.466,0,0,0-.148-.642.467.467,0,0,0-.642.148c-.033.052-.806,1.291-1.514,2.694-1.35,2.679-1.246,3.524-1,3.961a.939.939,0,0,0,.866.476c2.106,0,6-3.925,6.436-4.373A.466.466,0,0,0,138.115-11.895Zm-3.633-2.662a.651.651,0,0,0,.651-.65.651.651,0,0,0-.651-.651.651.651,0,0,0-.651.651A.651.651,0,0,0,134.482-14.557ZM152.521-4.25h0a95.949,95.949,0,0,0-12,.947,85.889,85.889,0,0,0,3.6-8.28c.069-.18.136-.356.2-.511a1.613,1.613,0,0,0,.308-.76.478.478,0,0,0-.388-.482c-.4-.072-.536.271-.66.576-.034.084-.074.185-.119.3C142.43-11,138.449-7.206,136.7-7.206c-.093,0-.255-.011-.292-.084-.2-.4.487-2.048,1.83-3.873a.466.466,0,0,0-.1-.652.466.466,0,0,0-.652.1c-.607.824-2.538,3.608-1.911,4.847a1.145,1.145,0,0,0,1.124.6c1.507,0,3.718-1.8,4.9-2.865.042-.038.412-.374.88-.838q-1.559,3.856-3.121,6.854c-7.153,1.176-14.547,3.579-14.547,8.485,0,1.122,1.026,2.791,3.852,2.791,3.392,0,6.8-2.8,10.127-8.331.414-.687.809-1.389,1.185-2.092a97.852,97.852,0,0,1,12.543-1.049.466.466,0,0,0,.463-.47.466.466,0,0,0-.466-.463ZM128.669,7.221c-2.395,0-2.919-1.342-2.919-1.858,0-4.254,7.057-6.39,13.054-7.437C135.41,4.1,132.016,7.221,128.669,7.221Zm28.967-18.51a.466.466,0,0,0-.653-.094c-1.22.912-4.686,3.28-6.05,3.28-.266,0-.361-.056-.372-.071-.076-.1.09-.61.153-.8.138-.417.267-.811.041-1.125a.642.642,0,0,0-.542-.259.466.466,0,0,0-.286.1c-1.6,1.242-4.216,2.991-5.02,2.991a.723.723,0,0,1-.487-.128.452.452,0,0,1-.106-.337c0-1.463,2.848-4.78,5.557-4.78,1.773,0,1.921.594,1.921,1.2a.466.466,0,0,0,.466.466.466.466,0,0,0,.466-.466c0-2.134-2.148-2.134-2.854-2.134-3.219,0-6.49,3.665-6.49,5.713a1.341,1.341,0,0,0,.4,1.015,1.582,1.582,0,0,0,1.127.383c1.113,0,3.513-1.644,4.819-2.6a1.475,1.475,0,0,0,.08,1.314,1.3,1.3,0,0,0,1.127.457c1.919,0,6.134-3.111,6.609-3.466A.467.467,0,0,0,157.636-11.289Z" transform="translate(1.271 36.87)"/>
  </g>
</svg>
